<svg width="25" height="33" viewBox="0 0 25 33" fill="none" xmlns="http://www.w3.org/2000/svg">
<path d="M22.2439 24.351C20.9248 22.9062 18.6542 20.144 16.3888 20.0716C16.502 19.6445 16.5198 19.25 16.3924 18.924C17.2075 18.8506 18.0225 18.7788 18.8396 18.7314C19.6805 18.6827 20.5217 18.6782 21.3622 18.7353C22.0697 18.7832 22.6651 19.1031 23.3415 19.1951C23.688 19.242 23.9097 18.9752 23.8326 18.69C23.9946 18.5799 24.1086 18.3905 24.074 18.1507C23.7355 15.7989 24.0069 13.4198 23.6786 11.0699C23.4007 9.08185 22.872 7.1877 21.8827 5.43266C19.8747 1.87038 15.869 0.0192708 11.8931 0.000124239C8.08277 -0.018514 4.15367 2.06049 3.00556 5.84439C2.48131 7.57181 2.70667 9.4741 2.95896 11.2252C3.23277 13.1255 4.09996 16.7127 2.24952 18.12C2.13481 18.2075 2.09262 18.3271 2.10059 18.4394C2.0911 18.443 2.08059 18.446 2.0711 18.4498C1.64649 18.6148 1.80271 19.2585 2.26257 19.1443C2.62974 19.0533 2.99488 18.9952 3.37256 18.9755C4.7994 19.24 6.48311 19.0648 7.92554 19.0323C7.94231 19.0979 7.95485 19.1661 7.96315 19.2378C7.89571 19.3046 7.85115 19.3979 7.86674 19.5143C7.88894 19.6797 7.90249 19.8454 7.9213 20.011C4.26245 22.6976 -0.122106 26.0314 0.00260064 31.0324C0.00785323 31.2446 0.151876 31.4797 0.375195 31.5219C2.39914 31.9052 4.42579 31.8308 6.47362 31.7293C8.90743 31.6083 11.3314 31.7259 13.7651 31.8051C16.2899 31.8871 18.8145 31.9696 21.3393 32.0518C22.2614 32.0817 23.7246 32.3862 24.4098 31.565C26.1478 29.4819 23.6281 25.8671 22.2439 24.351ZM21.6799 7.40864C21.8967 7.93085 22.0711 8.46137 22.2063 8.99984C22.0438 8.46679 21.8647 7.93831 21.6777 7.41068C21.6785 7.40983 21.6792 7.40932 21.6799 7.40864ZM19.8147 16.9829C19.6927 16.9941 19.5709 17.0061 19.449 17.0194C19.4889 17.0017 19.5283 16.9804 19.5659 16.9511C19.6627 16.8753 19.7552 16.796 19.8477 16.7166C19.8157 16.8018 19.8038 16.8948 19.8147 16.9829ZM7.30692 15.4053C5.85754 13.7677 5.55221 11.7832 5.22435 9.74012C5.8777 9.97767 6.9311 10.0307 7.1063 10.0358C8.94827 10.0909 10.7877 9.79671 12.618 9.63608C12.876 9.61321 13.1786 9.4131 13.143 9.11082C13.0543 8.3553 12.9846 7.62451 13.0285 6.88203C14.1244 7.86901 14.7778 9.3194 16.2782 9.8228C16.9824 10.0593 18.6142 10.2286 19.6393 9.95988C20.2501 10.9643 19.2194 13.2336 18.8707 14.1391C18.0219 16.3433 15.9044 17.8405 13.5948 18.0329C11.1542 18.2366 8.90523 17.2112 7.30692 15.4053ZM14.8559 20.7026C14.3622 21.6876 13.7205 22.6029 13.0788 23.495C11.9661 25.0414 10.6689 26.7475 9.1482 27.9959C9.08941 25.4118 9.13448 22.823 8.64429 20.2812C8.66073 20.1924 8.63955 20.0996 8.59465 20.0201C8.5816 19.9574 8.57262 19.8944 8.5589 19.8317C8.55957 19.8241 8.56008 19.8163 8.56093 19.8086C8.58177 19.574 8.57906 19.2749 8.6448 19.0316C10.3678 19.0624 12.0747 19.24 13.7983 19.1341C14.3489 19.1004 14.8988 19.055 15.4481 19.007C15.2319 19.5572 15.1289 20.1577 14.8559 20.7026Z" fill="white"/>
<path d="M10.1804 12.9243C10.0948 12.4955 9.88774 12.098 9.83233 11.6595C9.76761 11.1469 9.07274 11.1322 9.0236 11.6595C8.97667 12.1639 9.03546 12.7141 9.18542 13.1987C9.38315 13.8391 10.31 13.5728 10.1804 12.9243Z" fill="white"/>
<path d="M16.1742 12.6778C16.1123 12.2001 16.0613 11.6596 15.8714 11.2144C15.7275 10.8773 15.285 11.0437 15.1824 11.3045C15.0827 11.5578 15.1326 11.9001 15.1413 12.1649C15.1464 12.3218 15.1499 12.4779 15.1435 12.6348C15.1433 12.639 15.1428 12.6434 15.1425 12.6476C15.1264 12.6947 15.117 12.7461 15.1228 12.8066C15.1543 13.1392 15.3722 13.4741 15.7616 13.3671C16.0554 13.2866 16.2113 12.9641 16.1742 12.6778Z" fill="white"/>
</svg>
