<svg xmlns="http://www.w3.org/2000/svg" xmlns:xlink="http://www.w3.org/1999/xlink" width="57" height="94" viewBox="0 0 57 94">
  <defs>
    <clipPath id="clip-microphone">
      <rect width="57" height="94"/>
    </clipPath>
  </defs>
  <g id="microphone" clip-path="url(#clip-microphone)">
    <g id="Group_6233" data-name="Group 6233" transform="translate(-2 2)">
      <g id="microphone_3_" data-name="microphone (3)" transform="translate(-24.999 44.498) rotate(-45)">
        <path id="Path_7419" data-name="Path 7419" d="M78.485,23.368A23.364,23.364,0,0,0,42.839,3.489a5.379,5.379,0,0,0-7.6,7.6,23.2,23.2,0,0,0-3.478,11.706l-2.01,2.01a5,5,0,0,0-.869,5.895L1.261,62a4.665,4.665,0,0,0,.065,6.45l8.7,8.7a4.5,4.5,0,0,0,3.2,1.327,4.913,4.913,0,0,0,3.249-1.261L47.786,49.6a5,5,0,0,0,5.895-.868l2.01-2.01A23.2,23.2,0,0,0,67.4,43.247a5.379,5.379,0,0,0,7.6-7.6,23.22,23.22,0,0,0,3.489-12.279Zm-3.066,0a20.175,20.175,0,0,1-2.656,10.038L45.08,5.721A20.3,20.3,0,0,1,75.42,23.368ZM55.67,43.659,34.826,22.815a20.157,20.157,0,0,1,2.645-9.486L65.156,41.014A20.155,20.155,0,0,1,55.67,43.659ZM21.347,68.843l-11.7-11.7L30.913,33.031,45.455,47.572Zm-6.894,6.083a1.645,1.645,0,0,1-2.254.065l-8.7-8.7a1.645,1.645,0,0,1,.066-2.254l4.05-4.591L19.044,70.875ZM72.667,40.917a2.317,2.317,0,0,1-3.273,0L37.568,9.091a2.314,2.314,0,0,1,3.273-3.273h0L72.667,37.644A2.317,2.317,0,0,1,72.667,40.917Z" transform="translate(0 0)" fill="#fff" fill-rule="evenodd"/>
        <circle id="Ellipse_158" data-name="Ellipse 158" cx="3.462" cy="3.462" r="3.462" transform="translate(22.886 48.674)" fill="#fff"/>
      </g>
      <path id="Path_7420" data-name="Path 7420" d="M23.31,0C36.184,0,46.62,10.9,46.62,24.355H0C0,10.9,10.436,0,23.31,0Z" transform="translate(7.114 0.395)" fill="#fff"/>
    </g>
  </g>
</svg>
