<svg xmlns="http://www.w3.org/2000/svg" xmlns:xlink="http://www.w3.org/1999/xlink" width="53" class="sos" height="53" viewBox="0 0 53 53">
  <defs>
    <clipPath id="clip-Emergency_1">
      <rect width="53" height="53"/>
    </clipPath>
  </defs>
  <g id="Emergency_1" data-name="Emergency – 1" clip-path="url(#clip-Emergency_1)">
    <g id="Group_6558" data-name="Group 6558" transform="translate(0)">
      <path id="Path_7734" data-name="Path 7734" d="M-294.125,319.812c-6.818,0-13.637-.024-20.455.02a2.1,2.1,0,0,1-2.246-2.248c.049-1.753.007-3.507.013-5.261a5.712,5.712,0,0,1,5.85-5.849c.442,0,.885-.008,1.328,0,.269,0,.384-.108.378-.383-.01-.41.008-.82.008-1.229,0-3.851-.021-7.7.008-11.556a14.688,14.688,0,0,1,4.032-10.267,14.759,14.759,0,0,1,12.076-4.856,14.471,14.471,0,0,1,9.235,3.894,14.867,14.867,0,0,1,5,11.389q.01,5.8,0,11.6c0,1.4,0,1.41,1.381,1.4a7.4,7.4,0,0,1,1.9.194,5.676,5.676,0,0,1,4.279,5.419c.019,1.885.011,3.77,0,5.655a1.909,1.909,0,0,1-2.086,2.074Q-283.775,319.816-294.125,319.812Zm.016-13.34q5.309,0,10.617,0c.653,0,.693-.049.693-.7,0-4.112.008-8.225,0-12.337a11.215,11.215,0,0,0-2.142-6.669,11.191,11.191,0,0,0-15.333-2.817,11.02,11.02,0,0,0-5.062,9.432c-.059,4.128-.014,8.256-.013,12.385,0,.692.017.709.724.709Q-299.368,306.474-294.109,306.472Zm.035,9.442q9.117,0,18.235.009c.462,0,.637-.118.618-.6-.036-.917-.007-1.835-.012-2.752a1.97,1.97,0,0,0-2.186-2.2h-33.325a1.976,1.976,0,0,0-2.173,2.161c-.007.868,0,1.737,0,2.6s-.076.777.756.777Q-303.118,315.916-294.074,315.914Z" transform="translate(320.566 -266.833)" fill="#ffffff" fill-rule="evenodd"/>
      <path id="Path_7735" data-name="Path 7735" d="M-263.889,278.763a1.806,1.806,0,0,1-1.8-1.09,1.806,1.806,0,0,1,.231-2.073,29.432,29.432,0,0,1,3.066-3.035,1.92,1.92,0,0,1,2.482.154,2,2,0,0,1,.3,2.478,2.9,2.9,0,0,1-.368.458q-1.244,1.255-2.5,2.5A1.834,1.834,0,0,1-263.889,278.763Z" transform="translate(305.113 -265.019)" fill="#ffffff" fill-rule="evenodd"/>
      <path id="Path_7736" data-name="Path 7736" d="M-305.336,276.742a1.814,1.814,0,0,1-1.091,1.843,1.874,1.874,0,0,1-2.156-.3q-1.433-1.341-2.778-2.773a1.942,1.942,0,0,1,.024-2.749,1.93,1.93,0,0,1,2.707-.053c.974.9,1.9,1.852,2.818,2.8A1.6,1.6,0,0,1-305.336,276.742Z" transform="translate(319.076 -265.021)" fill="#ffffff" fill-rule="evenodd"/>
      <path id="Path_7737" data-name="Path 7737" d="M-283.053,265.748c0,.59.013,1.178,0,1.767a1.875,1.875,0,0,1-1.97,2.028,1.892,1.892,0,0,1-1.967-2.039q-.033-1.79,0-3.582a1.911,1.911,0,0,1,1.949-2.022,1.922,1.922,0,0,1,1.988,2.033C-283.039,264.537-283.052,265.143-283.053,265.748Z" transform="translate(311.518 -261.9)" fill="#ffffff" fill-rule="evenodd"/>
      <path id="Path_7738" data-name="Path 7738" d="M-318.328,301.04c-.605,0-1.21.011-1.816,0a1.928,1.928,0,0,1-2.051-1.923,1.923,1.923,0,0,1,2.007-2.016c1.227-.028,2.454-.024,3.68,0a1.939,1.939,0,0,1,1.9,1.363,1.965,1.965,0,0,1-.828,2.273,2.021,2.021,0,0,1-1.073.3Q-317.42,301.041-318.328,301.04Z" transform="translate(322.194 -272.575)" fill="#ffffff" fill-rule="evenodd"/>
      <path id="Path_7739" data-name="Path 7739" d="M-253.3,301.039c-.59,0-1.181.01-1.77,0a1.911,1.911,0,0,1-2.03-1.936,1.9,1.9,0,0,1,2.018-2c1.213-.026,2.426-.035,3.638,0a1.956,1.956,0,0,1,1.881,2.662,1.972,1.972,0,0,1-1.868,1.276H-253.3Z" transform="translate(302.442 -272.574)" fill="#ffffff" fill-rule="evenodd"/>
      <path id="Path_7740" data-name="Path 7740" d="M-276.588,296.458a1.928,1.928,0,0,1-1.572,2.208,1.916,1.916,0,0,1-2.312-1.755A3.834,3.834,0,0,0-283.1,293.2a1.931,1.931,0,0,1-1.033-2.506,1.908,1.908,0,0,1,2.394-1.158A7.564,7.564,0,0,1-276.588,296.458Z" transform="translate(310.684 -270.257)" fill="#ffffff" fill-rule="evenodd"/>
    </g>
  </g>
</svg>
